#!OML:ASF E:\motion texture\Top Level 1\Subject 1\Session 1\male.ASF
:FULLY-SPECIFIED
:DEGREES
97
root 17.055 17.6664 5.90953 198.849 -86.498 -192.754
lowerback 0.858805 -2.56648 -2.59666
upperback -2.66386 -3.45915 2.84045
thorax -2.89673 -1.64768 4.49753
lowerneck -18.2196 -1.86171 -3.50641
upperneck 15.7531 -3.73448 9.97762
head 8.15991 -1.03826 3.4601
rclavicle 4.50993e-014 -3.26007e-014
rhumerus -42.1724 -26.4276 -63.9081
rradius 13.4291
rwrist 33.2157
rhand -6.63765 -28.2255
rfingers 7.12502
rthumb 19.2193 -57.2959
lclavicle 4.50993e-014 -3.26007e-014
lhumerus -32.8173 -41.2767 119.635
lradius 55.8569
lwrist -18.7068
lhand -18.2361 13.282
lfingers 7.12502
lthumb 8.04246 43.109
rfemur -34.8516 -4.4808 14.6011
rtibia 22.9053
rfoot -2.29024 -17.7702
rtoes 8.69201
lfemur 0.572524 -5.37878 -24.596
ltibia 14.1878
lfoot -15.4372 -1.15194
ltoes -0.283891
98
root 16.9176 17.6504 5.8823 201.646 -86.6099 -195.352
lowerback 0.829699 -2.64134 -2.68724
upperback -2.61097 -3.55982 2.87979
thorax -2.80836 -1.69814 4.58788
lowerneck -18.3823 -1.80026 -3.44775
upperneck 15.468 -3.61693 9.90779
head 8.08223 -0.985274 3.43715
rclavicle 1.34428e-014 -1.19271e-014
rhumerus -42.9341 -25.3232 -64.2522
rradius 13.7686
rwrist 31.5678
rhand -6.03933 -27.8573
rfingers 7.12502
rthumb 19.7945 -56.8693
lclavicle 1.34428e-014 -1.19271e-014
lhumerus -33.4245 -42.7733 120.289
lradius 57.968
lwrist -19.0287
lhand -17.9548 12.4532
lfingers 7.12502
lthumb 8.31397 42.2696
rfemur -34.5822 -3.74442 14.1223
rtibia 19.9695
rfoot -1.96165 -17.4514
rtoes 8.05974
lfemur 0.903296 -5.28226 -24.6255
ltibia 14.1009
lfoot -15.6308 -1.42341
ltoes -0.679167
99
root 16.78 17.6341 5.85338 204.699 -86.7053 -198.195
lowerback 0.797447 -2.72306 -2.80545
upperback -2.59026 -3.67043 2.93584
thorax -2.74748 -1.75208 4.71226
lowerneck -18.4107 -1.73214 -3.41387
upperneck 15.1443 -3.4798 9.82337
head 7.96685 -0.930538 3.41485
rclavicle -7.15625e-015 4.77083e-015
rhumerus -43.7068 -24.1844 -64.5906
rradius 14.1094
rwrist 30.0059
rhand -5.41879 -27.3919
rfingers 7.12502
rthumb 20.391 -56.3413
lclavicle -7.15625e-015 4.77083e-015
lhumerus -34.0193 -44.0182 120.844
lradius 60.0058
lwrist -19.4421
lhand -17.5238 11.6185
lfingers 7.12502
lthumb 8.72988 41.418
rfemur -34.3271 -2.82398 13.5442
rtibia 17.2259
rfoot -1.99208 -17.3356
rtoes 7.22269
lfemur 1.20879 -5.18287 -24.6501
ltibia 14.038
lfoot -15.8153 -1.70099
ltoes -1.12533
100
root 16.6414 17.6178 5.82282 207.908 -86.7938 -201.194
lowerback 0.763525 -2.803 -2.93276
upperback -2.57107 -3.77874 2.99753
thorax -2.6859 -1.80479 4.84733
lowerneck -18.4279 -1.6684 -3.37296
upperneck 14.8199 -3.34775 9.71897
head 7.84958 -0.879946 3.38399
rclavicle -6.41081e-015 2.62396e-014
rhumerus -44.4678 -23.1424 -64.8806
rradius 14.4303
rwrist 28.6268
rhand -4.7994 -26.8507
rfingers 7.12502
rthumb 20.9861 -55.7353
lclavicle -6.41081e-015 2.62396e-014
lhumerus -34.5587 -45.1105 121.28
lradius 61.9601
lwrist -19.8575
lhand -16.9843 10.7684
lfingers 7.12502
lthumb 9.2505 40.5455
rfemur -34.1114 -1.78877 12.9023
rtibia 14.7912
rfoot -2.45143 -17.4375
rtoes 6.19718
lfemur 1.49359 -5.09316 -24.6619
ltibia 14.0163
lfoot -15.998 -1.98571
ltoes -1.61293
101
root 16.5032 17.6007 5.79289 210.816 -86.8249 -203.885
lowerback 0.731083 -2.85965 -3.04467
upperback -2.55631 -3.85567 3.0577
thorax -2.63347 -1.84201 4.97174
lowerneck -18.4149 -1.6066 -3.32974
upperneck 14.4794 -3.21789 9.60759
head 7.72226 -0.832021 3.34983
rclavicle 2.77802e-014 1.59028e-015
rhumerus -45.2211 -22.2355 -65.0876
rradius 14.7157
rwrist 27.4654
rhand -4.17709 -26.295
rfingers 7.12502
rthumb 21.5839 -55.1121
lclavicle 2.77802e-014 1.59028e-015
lhumerus -35.0431 -46.0883 121.61
lradius 63.7959
lwrist -20.2332
lhand -16.395 9.90049
lfingers 7.12502
lthumb 9.81908 39.6516
rfemur -34.0365 -0.787979 12.2899
rtibia 12.8422
rfoot -3.29485 -17.6166
rtoes 4.96222
lfemur 1.74215 -5.02077 -24.6873
ltibia 14.0402
lfoot -16.1794 -2.21846
ltoes -2.11883
102
root 16.365 17.5828 5.76402 213.448 -86.8343 -206.286
lowerback 0.696846 -2.90507 -3.12064
upperback -2.54864 -3.9169 3.1151
thorax -2.5911 -1.87198 5.07288
lowerneck -18.3851 -1.54539 -3.28022
upperneck 14.1388 -3.09077 9.48897
head 7.59258 -0.786127 3.31189
rclavicle 3.13086e-014 1.27222e-014
rhumerus -45.9624 -21.477 -65.1995
rradius 14.9515
rwrist 26.5399
rhand -3.59573 -25.7358
rfingers 7.12502
rthumb 22.1421 -54.4879
lclavicle 3.13086e-014 1.27222e-014
lhumerus -35.471 -46.9611 121.84
lradius 65.5036
lwrist -20.4795
lhand -15.8439 9.07109
lfingers 7.12502
lthumb 10.3508 38.7964
rfemur -34.1431 -0.0456183 11.817
rtibia 11.5016
rfoot -4.3074 -17.7012
rtoes 3.46156
lfemur 1.94406 -5.00618 -24.7225
ltibia 14.1215
lfoot -16.3549 -2.39826
ltoes -2.67257
103
root 16.2273 17.5642 5.73644 215.586 -86.8103 -208.184
lowerback 0.664761 -2.93358 -3.16094
upperback -2.54464 -3.95491 3.16974
thorax -2.55852 -1.89091 5.15094
lowerneck -18.3408 -1.48474 -3.22145
upperneck 13.7956 -2.96676 9.3622
head 7.46016 -0.742321 3.26932
rclavicle 3.00165e-014 -1.82882e-014
rhumerus -46.6798 -20.8692 -65.2105
rradius 15.133
rwrist 25.8329
rhand -3.06861 -25.187
rfingers 7.12502
rthumb 22.6481 -53.8781
lclavicle 3.00165e-014 -1.82882e-014
lhumerus -35.8386 -47.7312 121.974
lradius 67.0733
lwrist -20.5334
lhand -15.3199 8.30988
lfingers 7.12502
lthumb 10.8562 38.0093
rfemur -34.461 0.266854 11.5971
rtibia 10.853
rfoot -5.25891 -17.509
rtoes 1.80999
lfemur 2.1033 -5.04652 -24.773
ltibia 14.2604
lfoot -16.5236 -2.5102
ltoes -3.26211
104
root 16.0896 17.5452 5.70981 217.359 -86.771 -209.719
lowerback 0.647377 -2.95113 -3.16974
upperback -2.54774 -3.97799 3.22245
thorax -2.54525 -1.90249 5.21025
lowerneck -18.2859 -1.42397 -3.16012
upperneck 13.4637 -2.8457 9.23481
head 7.3304 -0.699838 3.22601
rclavicle 4.02539e-014 -1.66979e-014
rhumerus -47.3786 -20.405 -65.1139
rradius 15.2609
rwrist 25.3356
rhand -2.6177 -24.64
rfingers 7.12502
rthumb 23.0808 -53.2777
lclavicle 4.02539e-014 -1.66979e-014
lhumerus -36.156 -48.4072 122.033
lradius 68.5057
lwrist -20.3203
lhand -14.8445 7.66652
lfingers 7.12502
lthumb 11.3148 37.3413
rfemur -34.9639 0.0954699 11.6698
rtibia 10.8823
rfoot -5.9642 -16.9913
rtoes 0.365358
lfemur 2.23499 -5.147 -24.8371
ltibia 14.4519
lfoot -16.678 -2.56201
ltoes -3.91844
105
root 15.9501 17.5273 5.68044 219.19 -86.7504 -211.349
lowerback 0.649371 -2.97346 -3.19758
upperback -2.53611 -4.00801 3.28185
thorax -2.52513 -1.91743 5.28799
lowerneck -18.2492 -1.36776 -3.09253
upperneck 13.1618 -2.73435 9.0983
head 7.21459 -0.661336 3.17812
rclavicle -4.76586e-014 1.59028e-015
rhumerus -48.0381 -20.0647 -64.9337
rradius 15.3524
rwrist 25.0122
rhand -2.24369 -24.1228
rfingers 7.12502
rthumb 23.4396 -52.7151
lclavicle -4.76586e-014 1.59028e-015
lhumerus -36.411 -48.9914 122.012
lradius 69.7969
lwrist -19.794
lhand -14.3775 7.15104
lfingers 7.12502
lthumb 11.7651 36.8006
rfemur -35.5261 -0.385848 11.9559
rtibia 11.4428
rfoot -6.30384 -16.3174
rtoes -0.580483
lfemur 2.39617 -5.28167 -24.8875
ltibia 14.6782
lfoot -16.8121 -2.61759
ltoes -4.65726
106
root 15.8083 17.5115 5.64791 220.976 -86.7414 -212.992
lowerback 0.683521 -2.99852 -3.24903
upperback -2.50183 -4.04245 3.34806
thorax -2.49703 -1.93451 5.38733
lowerneck -18.2374 -1.31623 -3.02041
upperneck 12.891 -2.6328 8.95551
head 7.11416 -0.626545 3.12693
rclavicle -3.26007e-014 -5.56597e-015
rhumerus -48.6544 -19.8544 -64.6607
rradius 15.4086
rwrist 24.8511
rhand -1.91933 -23.6778
rfingers 7.12502
rthumb 23.7508 -52.2301
lclavicle -3.26007e-014 -5.56597e-015
lhumerus -36.6016 -49.4781 121.913
lradius 70.9535
lwrist -18.9378
lhand -13.9076 6.77776
lfingers 7.12502
lthumb 12.2182 36.4009
rfemur -36.0698 -0.975566 12.361
rtibia 12.3948
rfoot -6.31223 -15.6124
rtoes -0.954186
lfemur 2.61959 -5.4239 -24.9194
ltibia 14.926
lfoot -16.9214 -2.68546
ltoes -5.47538
107
root 15.6637 17.4981 5.61178 222.947 -86.7499 -214.878
lowerback 0.749933 -3.03 -3.33733
upperback -2.44865 -4.08668 3.42237
thorax -2.46322 -1.95608 5.5174
lowerneck -18.2467 -1.27025 -2.94507
upperneck 12.6586 -2.54238 8.80645
head 7.03078 -0.596162 3.0726
rclavicle 2.53947e-014 -4.29375e-014
rhumerus -49.2268 -19.7757 -64.2854
rradius 15.4221
rwrist 24.8556
rhand -1.63895 -23.3556
rfingers 7.12502
rthumb 24.0196 -51.8726
lclavicle 2.53947e-014 -4.29375e-014
lhumerus -36.7442 -49.8685 121.756
lradius 71.9648
lwrist -17.7984
lhand -13.3453 6.52688
lfingers 7.12502
lthumb 12.7603 36.1169
rfemur -36.5306 -1.51048 12.7771
rtibia 13.5854
rfoot -6.09757 -14.9798
rtoes -0.825012
lfemur 2.90998 -5.56796 -24.9356
ltibia 15.1865
lfoot -16.9992 -2.77589
ltoes -6.40217
